<?xml version="1.0" encoding="utf-8"?>
<svg xmlns="http://www.w3.org/2000/svg" xmlns:xlink="http://www.w3.org/1999/xlink" width="600" height="490" viewBox="0 0 600 490">
  <defs>
    <linearGradient id="linear-gradient" x1="0.5" x2="0.5" y2="1" gradientUnits="objectBoundingBox">
      <stop offset="0" stop-color="#fee96a"/>
      <stop offset="0.086" stop-color="#fee970" stop-opacity="0.957"/>
      <stop offset="0.237" stop-color="#feec81" stop-opacity="0.843"/>
      <stop offset="0.434" stop-color="#fef09c" stop-opacity="0.659"/>
      <stop offset="0.67" stop-color="#fef6c2" stop-opacity="0.404"/>
      <stop offset="0.937" stop-color="#fefdf2" stop-opacity="0.082"/>
      <stop offset="1" stop-color="#fff" stop-opacity="0"/>
    </linearGradient>
    <linearGradient id="linear-gradient-2" x1="-4.255" y1="19.36" x2="-3.13" y2="21.662" gradientUnits="objectBoundingBox">
      <stop offset="0" stop-color="#fee96a"/>
      <stop offset="1" stop-color="#ced2f7"/>
    </linearGradient>
    <clipPath id="clip-Artboard_1">
      <rect width="600" height="490"/>
    </clipPath>
  </defs>
  <g id="Artboard_1" data-name="Artboard – 1" clip-path="url(#clip-Artboard_1)">
    <rect width="600" height="490" fill="#fff"/>
    <g id="Startup-illustrations" transform="translate(-61.004 -117.36)">
      <rect id="Rectangle_1" data-name="Rectangle 1" width="374.846" height="140.786" transform="translate(173.249 457.574)" fill="url(#linear-gradient)"/>
      <ellipse id="Ellipse_1" data-name="Ellipse 1" cx="187.264" cy="41.508" rx="187.264" ry="41.508" transform="translate(173.565 416.346)" fill="#fee96a"/>
      <g id="Group_7" data-name="Group 7" transform="translate(178.342 138.487)">
        <g id="Group_1" data-name="Group 1" transform="translate(15.885 0)">
          <path id="Path_1" data-name="Path 1" d="M392.16,205.464c-.922-.012-3.248-.172-6.492-.391a172.985,172.985,0,0,1-66.232-18.163c-17.429-8.737-40.661-12.459-53.231-9.134-.038.01-.078.021-.117.03a8.54,8.54,0,0,1-10.464-6.094c-2.991-10.86-17.45-18.563-32.714-18.563-18.339,0-33.206,10.28-33.206,22.964,0,5.353,2.678,10.28,7.123,14.188,12.664,11.129,19.6,27.306,18.055,44.093a44.537,44.537,0,0,0,.692,13.192,37.047,37.047,0,0,0,1.8,6.02c4.853,12.3,23.839,27.509,25,39.04,8.913,88.461,32.148,120.624,117.241,133.191s161.356-26.575,170.344-87.431S524.336,207.24,392.16,205.464Z" transform="translate(-189.703 -134.456)" fill="#e1e1ff"/>
          <path id="Path_2" data-name="Path 2" d="M272.322,145.169a7.394,7.394,0,0,1-4.585-2.293,15.026,15.026,0,0,0-10.888-4.386c-7.667,0-13.884,5.174-13.884,11.553s6.217,11.555,13.884,11.555a15.361,15.361,0,0,0,9.7-3.3,5.96,5.96,0,0,1,4.475-1.15,6.025,6.025,0,0,0,1.3-11.979Z" transform="translate(-175.058 -138.487)" fill="#e1e1ff"/>
          <path id="Path_3" data-name="Path 3" d="M281.791,162.006c0,1.807-2.02,3.273-4.513,3.273s-4.513-1.466-4.513-3.273,2.021-3.274,4.513-3.274S281.791,160.2,281.791,162.006Z" transform="translate(-166.863 -132.923)" fill="#e1e1ff"/>
          <path id="Path_4" data-name="Path 4" d="M420.769,192.3c0,3.19-4.274,5.777-9.545,5.777s-9.545-2.587-9.545-5.777,4.272-5.777,9.545-5.777S420.769,189.11,420.769,192.3Z" transform="translate(-131.419 -125.282)" fill="#e1e1ff"/>
          <path id="Path_5" data-name="Path 5" d="M424.431,183.6a2.921,2.921,0,1,1-2.92-2.919,2.921,2.921,0,0,1,2.92,2.919Z" transform="translate(-126.769 -126.888)" fill="#e1e1ff"/>
        </g>
        <g id="Group_2" data-name="Group 2" transform="translate(0 159.766)">
          <path id="Path_6" data-name="Path 6" d="M213.2,327.91c-.863-6.388-2.212-16.5-8.463-24.358-9.753-12.251-27.352-14.467-27.352-14.467s-1.858,17.7,7.969,29.9c5.378,6.674,16.587,11.482,22.858,13.5a6.393,6.393,0,0,1,4.45,6.177c-.614,42.585-7.186,62.951-7.186,62.951l6.289-.727C217.159,354.809,214.4,336.779,213.2,327.91Z" transform="translate(-177.244 -256.847)" fill="#e1e1ff"/>
          <path id="Path_7" data-name="Path 7" d="M221.605,319.8c1.687-5.263,4.345-13.6,10.8-19.294,10.074-8.88,25.265-8.111,25.265-8.111s-1.089,15.228-11.218,24.049c-5.54,4.828-15.728,7.2-21.324,7.963a5.485,5.485,0,0,0-4.684,4.548c-5.873,36.045-3.378,54.227-3.378,54.227l-5.2-1.557C214.225,341.918,219.263,327.109,221.605,319.8Z" transform="translate(-167.722 -255.943)" fill="#e1e1ff"/>
          <path id="Path_8" data-name="Path 8" d="M214.03,299.991c1.376-6.355,3.538-16.42,10.45-23.82,10.783-11.54,28.657-12.371,28.657-12.371s.458,17.952-10.394,29.429c-5.938,6.284-17.593,10.227-24.06,11.751a6.448,6.448,0,0,0-4.966,5.857,521.947,521.947,0,0,0,.788,77.766l-6.268-1.231C206.48,340.618,212.119,308.813,214.03,299.991Z" transform="translate(-168.813 -263.8)" fill="#b0b0ff"/>
          <path id="Path_9" data-name="Path 9" d="M206.391,348.586a21.189,21.189,0,0,0-3.7-8.933,14.769,14.769,0,0,0-3.218-3.3c-5.425-3.878-12.956-2.631-12.956-2.631s1.262,7.53,6.686,11.4a17.393,17.393,0,0,0,9.783,2.82,2.949,2.949,0,0,1,2.942,2.995,201.6,201.6,0,0,1-1.931,20.512l3.418-.576C208.449,362.592,207.235,353.433,206.391,348.586Z" transform="translate(-174.694 -244.628)" fill="#b0b0ff"/>
          <path id="Path_10" data-name="Path 10" d="M230.679,324.521s-7.035,2.964-9.556,9.135c-1.39,3.4-.67,8.648-.32,10.635a5.831,5.831,0,0,1,.053,1.678l-2.631,23.058h4.218a97.448,97.448,0,0,1-.3-19.778,5.729,5.729,0,0,1,2.349-4.155c2.137-1.541,5.351-4.25,6.618-7.354C233.628,331.564,230.679,324.521,230.679,324.521Z" transform="translate(-165.977 -247.105)" fill="#b0b0ff"/>
          <path id="Path_11" data-name="Path 11" d="M206.754,397.518h16.711a3.227,3.227,0,0,0,1.546-.377,20.768,20.768,0,0,0,10.9-18.266V362.731a3.309,3.309,0,0,0-3.309-3.309H197.621a3.309,3.309,0,0,0-3.31,3.309v16.14A20.765,20.765,0,0,0,205.2,397.136,3.236,3.236,0,0,0,206.754,397.518Z" transform="translate(-172.55 -237.507)" fill="#8888ea"/>
          <rect id="Rectangle_2" data-name="Rectangle 2" width="41.596" height="9.883" transform="translate(21.761 131.323)" fill="#e1e1ff"/>
          <rect id="Rectangle_3" data-name="Rectangle 3" width="41.596" height="2.373" transform="translate(21.761 131.323)" fill="#fff0f2"/>
        </g>
        <rect id="Rectangle_4" data-name="Rectangle 4" width="3.001" height="62.988" transform="translate(142.096 52.185) rotate(10.615)" fill="#fff"/>
        <path id="Path_12" data-name="Path 12" d="M328.805,204.8c-12.705-8.219-29.243,4-41.644-5.835a1.939,1.939,0,0,1-.721-1.87l4.576-24.393a1.9,1.9,0,0,1,2.927-1.224c12.705,8.219,29.245-4,41.645,5.835a1.939,1.939,0,0,1,.722,1.87q-2.289,12.2-4.576,24.393a1.906,1.906,0,0,1-2.928,1.224Z" transform="translate(-147.229 -129.504)" fill="#ffa50a"/>
        <path id="Path_13" data-name="Path 13" d="M284.447,216.734a2.255,2.255,0,0,0-1.108,1.341,1.207,1.207,0,0,0-.057.566,1.469,1.469,0,0,1-.446,1.215,2.656,2.656,0,0,0-.65,1.023,4.172,4.172,0,0,0-.181,2.165,3.624,3.624,0,0,1,.037,1.7,1.514,1.514,0,1,0,2.99.251,1.186,1.186,0,0,1,.265-.806.74.74,0,0,0,.069-.1,1.614,1.614,0,0,0,.235-1.118,1.113,1.113,0,0,1,.38-1.075,2.19,2.19,0,0,0,.755-1.14,1.67,1.67,0,0,0,.047-.831,1.122,1.122,0,0,1,.366-1.081,1.246,1.246,0,0,0,.447-1.125C287.426,216.585,285.273,216.265,284.447,216.734Z" transform="translate(-148.468 -117.033)" fill="#fab9af"/>
        <path id="Path_14" data-name="Path 14" d="M277.32,221.233l.012-.026a8.079,8.079,0,0,1,1.17-1.714l1.626-1.82c1.188-1.108,1.808-2.07,3.176-2.216,2.244-.24,5.4-.362,5.5.831.1,1.167-2.851,1.895-4.536,2.117a1.363,1.363,0,0,0-1.152,1.044s.831,6.661-2.663,6.915l-.845,2.415-4.14-.673.873-4.1A11.2,11.2,0,0,1,277.32,221.233Z" transform="translate(-150.235 -117.371)" fill="#fab9af"/>
        <path id="Path_15" data-name="Path 15" d="M257.36,244.408s-9.532-3.883-13.048,2.343,1.7,22.727-10.989,24.974-14.05,14.969-13.043,20.534c2.908,16.053,26.11,32.1,42.18,15.136s-3.885-28.435-5.374-37S265.588,250.459,257.36,244.408Z" transform="translate(-165.483 -109.695)" fill="#5046af"/>
        <path id="Path_16" data-name="Path 16" d="M258.736,273.209c-.069-6.578,13.134-13.5-.629-26.9a1.086,1.086,0,0,0-1.454-.085c-1.137.937-4.774,1.379-6.607,3.007-3.433,3.047-8.78,11.467-7.085,15.734,3.617,9.1-2.478,16.772-2.967,27.035-.394,10.54,16.776,21.007,25.094,18.084a8.74,8.74,0,0,0,5.549-5.763,7.651,7.651,0,0,0-.511-6.029l-.015-.027C266.9,292.246,258.966,295.148,258.736,273.209Z" transform="translate(-159.992 -108.934)" fill="#41378c"/>
        <path id="Path_17" data-name="Path 17" d="M275.747,354.586a152.8,152.8,0,0,0,.762-50.2A9.771,9.771,0,0,0,267.9,296.2h0a10.392,10.392,0,0,0-11.376,10.864,71.93,71.93,0,0,0,1.281,9.84c2.908,14.825,7.929,86.03,7.967,86.05a5.1,5.1,0,0,1-.1,1.02,5.755,5.755,0,0,1-1.2,2.278c-1.062,1.464-.412,2.457,1.77,4.177,1.828,1.442.872,3.966,2.732,4.265,2.575.411,4.328.218,4.547-.409.314-.9-.42-.98-2.6-2.086-1.667-.844-1.87-6.019-1.887-8.027a10.208,10.208,0,0,1,.1-1.476Z" transform="translate(-155.45 -95.135)" fill="#fab9af"/>
        <path id="Path_18" data-name="Path 18" d="M260.253,357.917c4.127-12.132,11.309-50.942,9.863-61.894L260.3,295.2a10.838,10.838,0,0,0-10.876,7.679c-2.138,7.089-4.186,19.03-2.268,36.43,0,0,1.478,9.459,0,15.543-1.343,5.523-9.068,39.89-10.476,46.164a21.721,21.721,0,0,1-.779,2.052,5.117,5.117,0,0,1-1.584,1.814c-1.388,1.158-1,2.281.692,4.484,1.417,1.845-.127,4.057,1.6,4.8,2.4,1.032,4.141,1.273,4.507.72.526-.8-.165-1.053-2.008-2.658-.722-.63-.656-2.839-.415-4.865a19.619,19.619,0,0,1,1.923-6.388C244.625,392.9,256.822,368.013,260.253,357.917Z" transform="translate(-161.781 -95.402)" fill="#fab9af"/>
        <path id="Path_19" data-name="Path 19" d="M278.3,364.887q-17.013,4.418-35.9,0c1.084-4.752,1.946-8.5,2.318-10.034,1.479-6.084,0-15.543,0-15.543-1.916-17.4.132-29.34,2.269-36.43a10.84,10.84,0,0,1,10.876-7.676l9.812.818a.451.451,0,0,0,.006.062l4.107.384a9.771,9.771,0,0,1,8.613,8.185,152.8,152.8,0,0,1-.762,50.2Z" transform="translate(-159.331 -95.402)" fill="#6469d4"/>
        <path id="Path_20" data-name="Path 20" d="M248.561,338.313c-1.258,2.949-2.452,5.955-3.537,9a65.181,65.181,0,0,0-.65-8.005c-1.917-17.4.13-29.34,2.268-36.43a10.838,10.838,0,0,1,10.876-7.676l3.561.3h0l6.247.521a.456.456,0,0,0,.006.062l4.107.384a9.771,9.771,0,0,1,8.613,8.185c.247,1.57.5,3.387.728,5.389C264.551,309.437,254.5,324.388,248.561,338.313Z" transform="translate(-158.995 -95.401)" fill="#5159bf"/>
        <path id="Path_21" data-name="Path 21" d="M287.749,253.016c1.49-7.6,3.005-27.421,3.005-27.421-.767-1.071-3.983-2.385-4.986-1.064L279.5,251.642c-6.773,8.552-12.326,16.36-14.944,20.112a5.955,5.955,0,0,1-4.38,2.531,71.218,71.218,0,0,0-10.929,1.65c-16.7,4.324-9.85,10.488-9.85,10.488a24.673,24.673,0,0,1,4.991,7.049c2.14,4.566,4.888,10.419,6.5,13.861.671,2.179-1.325,8.606-2.034,10.772l-1.485,4.54a1.307,1.307,0,0,0,.8,1.646c7.526,2.6,22.678,2.995,32.368-.094a1.818,1.818,0,0,0,1.062-2.59l-7.18-19.56c-1.906-4.128-1.552-5.128-.208-7.558a5.969,5.969,0,0,0,.532-4.5,17.677,17.677,0,0,0-1.917-3.83,6.128,6.128,0,0,1,.463-7.1C278.837,272.3,286.359,260.108,287.749,253.016Z" transform="translate(-160.537 -114.984)" fill="#b0b0ff"/>
        <path id="Path_22" data-name="Path 22" d="M246.751,245.462c-5,1.388-5.875,5.465-4.142,12.075a13.9,13.9,0,0,0,3.763,5.922,5.067,5.067,0,0,1,1.523,3.682l-.065,4.021c.212,3.653,2.373,5.088,4.98,5.1a4.873,4.873,0,0,0,3.51-1.62c1.021-1.149.643-2.9.006-4.3l-.579-.982a2.736,2.736,0,0,1,.978-3.808,10,10,0,0,0,2.822-2.172c.655-.782,1.056-6.609-1.611-12.663C255.183,244.472,251.752,244.073,246.751,245.462Z" transform="translate(-159.495 -109.258)" fill="#fab9af"/>
        <path id="Path_23" data-name="Path 23" d="M255.3,256.5a1.19,1.19,0,0,1-.82,1.662h0a1.19,1.19,0,0,1-1.4-.831l-1.108-4.933a.709.709,0,0,1,.538-.848.573.573,0,0,1,.644.317Z" transform="translate(-156.703 -107.411)" fill="#fa968c"/>
        <path id="Path_24" data-name="Path 24" d="M245.473,255.607c.423,1.523.923,3.454-.415,3.826s-3.457-2.034-3.883-3.56.333-2.14,1.673-2.514S245.049,254.081,245.473,255.607Z" transform="translate(-159.699 -106.925)" fill="#fab9af"/>
        <path id="Path_25" data-name="Path 25" d="M240.713,251.056c4.039-7.831,12.706-10.376,17.1-7.7,2.36,1.438,5.65,7.6.406,7.8a6.155,6.155,0,0,1-3.588-1.084,1.753,1.753,0,0,0-1.211-.241l-3.413,1.177a5.412,5.412,0,0,0-3.376,6.823l.334,1.008a.609.609,0,0,1-.863.714l-.2-.377a3.988,3.988,0,0,0-2.526-1.98C241.1,256.616,238.289,255.753,240.713,251.056Z" transform="translate(-160.048 -109.938)" fill="#5046af"/>
        <path id="Path_26" data-name="Path 26" d="M248.521,324.741c-.812-1.219-1.494-2.53-1.87-2.978a7.8,7.8,0,0,0-.879-.682c-.46-.353-1.228-.826-1.432-1.369l-.9-2.269c-.415-1.1-1.261-1.742-2.365-1.327h0c-1.2.447-1.355,1.672-.773,2.807l.6,1.6a7.309,7.309,0,0,1,.542,2.96,10.9,10.9,0,0,0,2.62,5.621c.75.956,2.381,1.1,4.56,1.177,1.071.036,2.742-.227,1.731-1.118-.849-.749-4.141-1.079-4.414-4.332-.012-.159-.018-.574.165-.647.544-.223,1.1.96,1.587,1.454.683.7,1.4.816,1.72.593C249.764,325.993,249.1,325.611,248.521,324.741Z" transform="translate(-159.99 -89.687)" fill="#fab9af"/>
        <g id="Group_3" data-name="Group 3" transform="translate(138.305 53.793)">
          <path id="Path_27" data-name="Path 27" d="M315.11,312.13l-17.1,14.273a34.183,34.183,0,0,0-12.283,26.247v57.873h0a11.96,11.96,0,0,0,11.959-11.959V391.81a50.293,50.293,0,0,1,18-38.56l15.787-13.22Z" transform="translate(-285.723 -144.539)" fill="#827ddc"/>
          <path id="Path_28" data-name="Path 28" d="M360.363,312.13,377.47,326.4a34.185,34.185,0,0,1,12.284,26.247v57.873h0a11.961,11.961,0,0,1-11.963-11.961V391.81a50.289,50.289,0,0,0-18-38.558L344,340.033Z" transform="translate(-269.698 -144.539)" fill="#827ddc"/>
          <path id="Path_29" data-name="Path 29" d="M360.363,312.13,377.47,326.4a34.185,34.185,0,0,1,12.284,26.247v57.873h0a11.961,11.961,0,0,1-11.963-11.961V391.81a50.289,50.289,0,0,0-18-38.558L344,340.033Z" transform="translate(-269.698 -144.539)" opacity="0.21"/>
          <path id="Path_30" data-name="Path 30" d="M360.755,374.1H316.848a5.109,5.109,0,0,1-5.072-5.722l3.9-32.2h46.26l3.9,32.2a5.108,5.108,0,0,1-5.071,5.722Z" transform="translate(-278.568 -137.928)" fill="#6469d4"/>
          <path id="Path_31" data-name="Path 31" d="M352.785,374.1H340.724V336.175h13.238l3.9,32.2a5.108,5.108,0,0,1-5.072,5.722Z" transform="translate(-270.599 -137.928)" fill="#6469d4"/>
          <path id="Path_32" data-name="Path 32" d="M356.248,386.264a16.032,16.032,0,0,0,15.744-12.932,324.543,324.543,0,0,0,5.508-61.376c0-64.253-28.631-131.276-36.635-131.276-9.482,0-36.635,67.023-36.635,131.276a324.431,324.431,0,0,0,5.509,61.376,16.029,16.029,0,0,0,15.743,12.929Z" transform="translate(-280.632 -180.68)" fill="#fff"/>
          <path id="Path_33" data-name="Path 33" d="M363.382,234.029c-8.884-31.121-20.33-53.345-24.939-53.345-5.461,0-16.777,22.228-25.4,53.345Z" transform="translate(-278.209 -180.681)" fill="#fff"/>
          <path id="Path_34" data-name="Path 34" d="M360.5,226.079c-8.448-26.885-18.35-45.395-22.555-45.395-4.986,0-14.843,18.51-23.081,45.395Z" transform="translate(-277.709 -180.681)" fill="#827ddc"/>
          <path id="Path_35" data-name="Path 35" d="M318.46,224.1h4.892c4.559-14.879,6.622-25.38,10.4-35.239a.71.71,0,0,0-1.273-.62C328.7,194.7,324.056,205.836,318.46,224.1Z" transform="translate(-276.72 -178.704)" fill="#928deb"/>
          <path id="Path_36" data-name="Path 36" d="M364.539,280.905A26.143,26.143,0,1,1,338.4,254.762a26.142,26.142,0,0,1,26.143,26.143Z" transform="translate(-278.426 -160.313)" opacity="0.39"/>
          <path id="Path_37" data-name="Path 37" d="M364.539,278.745A26.143,26.143,0,1,1,338.4,252.6a26.142,26.142,0,0,1,26.143,26.145Z" transform="translate(-278.426 -160.905)" fill="#827ddc"/>
          <path id="Path_38" data-name="Path 38" d="M332.821,252.6c-.094,0-.186,0-.277.006V304.88c.093,0,.185.008.277.008a26.143,26.143,0,1,0,0-52.286Z" transform="translate(-272.849 -160.905)" opacity="0.21"/>
          <path id="Path_39" data-name="Path 39" d="M354.5,276.966a17.888,17.888,0,1,1-17.887-17.887A17.888,17.888,0,0,1,354.5,276.966Z" transform="translate(-276.646 -159.126)" fill="#d2f0ff"/>
          <path id="Rectangle_5" data-name="Rectangle 5" d="M0,0H44.641V9.962A3.034,3.034,0,0,1,41.606,13H3.034A3.034,3.034,0,0,1,0,9.962Z" transform="translate(37.899 236.172)" fill="#b0b0ff"/>
          <path id="Rectangle_6" data-name="Rectangle 6" d="M0,0H9.635V9.962A3.034,3.034,0,0,1,6.6,13H0Z" transform="translate(72.904 236.172)" fill="#9797ef"/>
          <path id="Path_40" data-name="Path 40" d="M334.713,410.79l-.277.328h0a17.3,17.3,0,0,1-4.423-11.017l-2.4-75.659a17.588,17.588,0,0,1,6.811-14.46l.014-.012h0a17.584,17.584,0,0,1,6.809,14.491l-2.534,75.823a17.311,17.311,0,0,1-4,10.506Z" transform="translate(-274.206 -145.133)" fill="#827ddc"/>
          <path id="Path_41" data-name="Path 41" d="M333.241,410.79l-.277.328h0l-.014-101.136.014-.012h0a17.584,17.584,0,0,1,6.81,14.491l-2.53,75.825a17.311,17.311,0,0,1-4,10.5Z" transform="translate(-272.734 -145.133)" opacity="0.21"/>
          <path id="Path_42" data-name="Path 42" d="M345.966,261.429c.017.352.028.706.028,1.062a23.154,23.154,0,0,1-23.152,23.153c-.7,0-1.4-.038-2.084-.1a17.878,17.878,0,1,0,25.205-24.117Z" transform="translate(-276.088 -158.478)" fill="#afe6ff"/>
        </g>
        <path id="Path_43" data-name="Path 43" d="M242,268.417c1.6-1.654,5.531-2.138,9.11-1.4,3.381.7-3.922,24.352-10.733,35.482a5.038,5.038,0,0,0-.582,4l7.254,25.7c-.872,1.762-2.485,2.057-4.127,2.293l-12.213-26.832a12.175,12.175,0,0,1-.715-8.067C232.107,291.35,237.124,273.436,242,268.417Z" transform="translate(-162.844 -103.242)" fill="#b0b0ff"/>
        <g id="Group_6" data-name="Group 6" transform="translate(227.169 124.827)">
          <path id="Path_44" data-name="Path 44" d="M409.433,376.882l1.926,7.548a3,3,0,0,0,.376.8l1.367,2.028a2.311,2.311,0,0,1-1.242,3.5s-2.753.969-5.592,1.9c-2.908.954-6.56.156-6.56-.611,0-1.7,1.588-.35,4.25-2.131.891-.6,1.811-1.22,2.631-1.864,2.29-1.8.292-6.347-1.108-8.91-.5-.922.032-3.221,1.058-3.44l.664-.143a1.917,1.917,0,0,1,2.229,1.325Z" transform="translate(-343.243 -198.142)" fill="#fab9af"/>
          <path id="Path_45" data-name="Path 45" d="M407.517,328.065c-.554-1.395-.956-2.855-1.233-3.385a7.819,7.819,0,0,0-.735-.872c-.386-.453-1.055-1.091-1.143-1.679l-.412-2.466c-.177-1.194-.891-2.014-2.086-1.836h0c-1.294.194-1.716,1.385-1.374,2.648l.259,1.731a7.475,7.475,0,0,1-.092,3.083c-.317,2.108.554,4.41,1.426,6.194.544,1.118,2.147,1.614,4.317,2.155,1.066.265,2.8.361,1.972-.751-.692-.931-3.921-1.966-3.5-5.286.021-.163.1-.577.3-.613.591-.107.9,1.2,1.28,1.8.535.843,1.224,1.114,1.6.961C408.5,329.585,407.912,329.062,407.517,328.065Z" transform="translate(-343.047 -214.013)" fill="#fab9af"/>
          <path id="Path_46" data-name="Path 46" d="M423.491,266.74c-3.413,10.753-12.175,30.883-24.936,38.027-8.725,4.887-29.727,11.929-29.727,11.929a14.069,14.069,0,0,1-1.146-1.65,10.252,10.252,0,0,1-.762-1.865s26.147-13.41,29.652-17.3,15.2-28.679,18.705-32.562C419.363,258.789,425.4,260.714,423.491,266.74Z" transform="translate(-352.26 -229.68)" fill="#b0b0ff"/>
          <path id="Path_47" data-name="Path 47" d="M402.37,319.478l8.27-58.109,22.312-3.062,11.6,60.752Z" transform="translate(-342.512 -230.372)" fill="#fab9af"/>
          <path id="Path_48" data-name="Path 48" d="M442.4,375.812l2.257,7.493a3.479,3.479,0,0,0,.441.933l1.6,2.375a2.706,2.706,0,0,1-1.454,4.1s-3.227,1.135-6.552,2.228c-3.4,1.118-7.686.184-7.686-.715,0-2,1.86-.412,4.976-2.5,1.044-.7,2.123-1.429,3.084-2.183,2.681-2.106.339-7.435-1.3-10.439A1.84,1.84,0,0,1,439,374.431l.776-.165a2.245,2.245,0,0,1,2.62,1.546Z" transform="translate(-334.636 -198.501)" fill="#fab9af"/>
          <path id="Path_49" data-name="Path 49" d="M429.612,307.177,404.888,305.1s-8.749,31.4-11.072,45.335c-1.682,10.1,13.613,49.135,13.613,49.135,1.514.663,2.982-.179,4.549-.568,0,0-4.644-34.484-3.063-42.877,1.647-8.757,14.843-26.5,15.691-31.152a106.988,106.988,0,0,1,5.005-17.795Z" transform="translate(-344.899 -217.506)" fill="#5046af"/>
          <path id="Path_50" data-name="Path 50" d="M418.674,308.266c-2.552,13.7-8.254,34.184,2.73,53.428s22.521,39.251,22.521,39.251a6.241,6.241,0,0,0,4.085-1.429s-1.926-8.725-4.709-18.911c-3.185-11.653-7.22-25.362-6.069-32.508,2.154-13.395,4.628-31.234,3.878-39.9S420.016,301.063,418.674,308.266Z" transform="translate(-339.065 -218.284)" fill="#5046af"/>
          <path id="Path_51" data-name="Path 51" d="M402.9,320.306a2.17,2.17,0,0,1-1.2-2.307l9.124-56.631,22.312-3.063,11.992,59.8a2.055,2.055,0,0,1-1.629,2.428,142.823,142.823,0,0,1-25.389,2.433C409.745,322.963,405.041,321.336,402.9,320.306Z" transform="translate(-342.701 -230.371)" fill="#d2f0ff"/>
          <path id="Path_52" data-name="Path 52" d="M422.56,273.23c2.719,7.361,7.046,21.9,4.565,34.67-3.5,17.993-8,25.268-2.166,29.461s17.014-2.8,17.338-5.136-2.176-30.988-5.009-43.4-10.767-30.26-10.767-30.26l-4.139.371S421.261,269.721,422.56,273.23Z" transform="translate(-337.133 -230.303)" fill="#b0b0ff"/>
          <path id="Path_53" data-name="Path 53" d="M415.853,260.287s-1.731,8.069-.382,20.084,4.477,48.6-6.456,54.128c-3.462,1.749-11.369-7.267-11.369-8.872,0-2.875,2.639-12.5,5.141-21.244,2.008-7.028,4.038-30.507,4.759-39.474a4.4,4.4,0,0,1,3.79-4Z" transform="translate(-343.81 -229.827)" fill="#b0b0ff"/>
          <g id="Group_4" data-name="Group 4" transform="translate(62.928 0)">
            <path id="Path_54" data-name="Path 54" d="M426.789,241.033a8.443,8.443,0,0,0,1.6,5.82c2.025,2.46-.918,4.75-1.6,6.425s.162,4.155-1.759,5.294-7.4,1.435-8.275-.564S420.6,239.889,426.789,241.033Z" transform="translate(-401.512 -235.137)" fill="#41378c"/>
            <path id="Path_55" data-name="Path 55" d="M407.281,246.72c-.3,11,9.937,13.11,15.89,13.11s6.193-13.184,6.193-17.934-4.677-5.5-10.63-5.5c-4.686,0-9.124,3.634-10.952,7.118a7.551,7.551,0,0,0-.5,3.206Z" transform="translate(-404.086 -236.396)" fill="#41378c"/>
            <path id="Path_56" data-name="Path 56" d="M418.121,239.727c4.979,0,6.836,3.545,6.931,10.1a13.316,13.316,0,0,1-1.957,6.44,4.87,4.87,0,0,0-.465,3.8l1.094,3.7c.743,3.432-.887,5.317-3.295,6a4.686,4.686,0,0,1-3.662-.6c-1.238-.8-1.34-2.52-1.108-3.977l.282-1.056a2.625,2.625,0,0,0-1.881-3.268c-3.835-.839-4.383-4.836-5.411-11.042C407.577,243.36,413.139,239.727,418.121,239.727Z" transform="translate(-403.751 -235.48)" fill="#fab9af"/>
            <path id="Path_57" data-name="Path 57" d="M407.552,237.634l2.855.868a5.66,5.66,0,0,0,3.223.02l5.7-1.654c3.454,0,9.158,1.949,8.436,6.933l-.636,3.524a3.165,3.165,0,0,1-2.854,2.584h0a1.118,1.118,0,0,1-2.2-.292h0a3.387,3.387,0,0,0-2.666-3.295,12.449,12.449,0,0,0-6.061.044c-3.963,1.064-8.14-1.393-8.537-5.476-.024-.259-.038-.521-.038-.788A2.325,2.325,0,0,1,407.552,237.634Z" transform="translate(-404.778 -236.266)" fill="#41378c"/>
            <path id="Path_58" data-name="Path 58" d="M419.332,248.338c0,1.523.565,2.754,2.03,2.754s2.4-2.092,2.4-3.612-.94-1.895-2.4-1.895S419.332,246.819,419.332,248.338Z" transform="translate(-400.776 -233.869)" fill="#fab9af"/>
            <path id="Path_59" data-name="Path 59" d="M409.775,252.436a1.142,1.142,0,0,0,1.116,1.385h0a1.142,1.142,0,0,0,1.141-1.077l0-4.847a.679.679,0,0,0-.681-.681.548.548,0,0,0-.535.432Z" transform="translate(-403.411 -233.423)" fill="#fa968c"/>
          </g>
          <path id="Path_60" data-name="Path 60" d="M418.612,267.133a.676.676,0,0,1,.646.474c.767,2.44,4.239,13.7,5.015,19.762.631,4.945-1.368,13.654-2.519,18.079a6.839,6.839,0,0,1-3.145,4.165l-.784.463a1.39,1.39,0,0,1-1.91-.5l-.638-1.108a3.192,3.192,0,0,1-.22-2.745c1.348-3.509,4.657-12.826,4.374-19.015-.1-2.175-2.208-15.422-2.75-18.793a.674.674,0,0,1,.668-.782Z" transform="translate(-339.083 -227.944)" fill="#afe6ff"/>
          <path id="Path_61" data-name="Path 61" d="M418.207,265.853a.679.679,0,0,1,.636.488c.713,2.458,3.93,13.789,4.57,19.873.52,4.959-1.674,13.619-2.926,18.019a6.835,6.835,0,0,1-3.239,4.092l-.794.445a1.39,1.39,0,0,1-1.9-.544l-.615-1.12a3.2,3.2,0,0,1-.158-2.75c1.426-3.478,4.945-12.719,4.8-18.91-.051-2.178-1.86-15.468-2.325-18.851a.676.676,0,0,1,.686-.767Z" transform="translate(-339.441 -228.306)" fill="#5159bf"/>
          <path id="Path_62" data-name="Path 62" d="M415.885,266.9h2.147a.652.652,0,0,0,.652-.653V264.1a.652.652,0,0,0-.652-.654l-1.939-.208a1.065,1.065,0,0,0-.862.862v2.142a.653.653,0,0,0,.654.653Z" transform="translate(-338.974 -229.014)" fill="#5159bf"/>
          <path id="Path_63" data-name="Path 63" d="M421.131,258.225l3.615.632a27.381,27.381,0,0,1-3.6,10.2.543.543,0,0,1-.887.008L417.7,265.5a1.273,1.273,0,0,1-.061-1.392Z" transform="translate(-338.366 -230.394)" fill="#fff"/>
          <path id="Path_64" data-name="Path 64" d="M414.959,259.434l-3.613,1.19a14.435,14.435,0,0,0,2.669,7.755.531.531,0,0,0,.881-.017l2.1-3.255a1.3,1.3,0,0,0,.079-1.261Z" transform="translate(-340.045 -230.062)" fill="#fff"/>
          <g id="Group_5" data-name="Group 5" transform="translate(0 24.333)">
            <path id="Path_65" data-name="Path 65" d="M434.985,303.167v-7.537a3.163,3.163,0,0,0-3.161-3.163h-2.343a3.5,3.5,0,0,1-3.311-2.349,28.305,28.305,0,0,0-1.3-3.121,3.5,3.5,0,0,1,.678-4.007l1.658-1.662a3.162,3.162,0,0,0,0-4.473l-5.332-5.332a3.16,3.16,0,0,0-4.471,0l-1.662,1.662a3.5,3.5,0,0,1-4.007.676,28.461,28.461,0,0,0-3.124-1.293,3.5,3.5,0,0,1-2.347-3.311v-2.343a3.162,3.162,0,0,0-3.161-3.162h-7.532a3.161,3.161,0,0,0-3.162,3.162v2.343a3.5,3.5,0,0,1-2.349,3.311,28.65,28.65,0,0,0-3.122,1.293,3.5,3.5,0,0,1-4.007-.676l-1.662-1.662a3.162,3.162,0,0,0-4.473,0l-5.328,5.332a3.162,3.162,0,0,0,0,4.473l1.656,1.662a3.5,3.5,0,0,1,.679,4.007,28.025,28.025,0,0,0-1.294,3.121,3.5,3.5,0,0,1-3.311,2.349h-2.342a3.163,3.163,0,0,0-3.163,3.164v7.537a3.162,3.162,0,0,0,3.163,3.16H369.2a3.5,3.5,0,0,1,3.311,2.349,27.957,27.957,0,0,0,1.294,3.122,3.5,3.5,0,0,1-.679,4.009l-1.656,1.662a3.16,3.16,0,0,0,0,4.471l5.328,5.332a3.162,3.162,0,0,0,4.473,0l1.662-1.662a3.5,3.5,0,0,1,4.007-.677,28.178,28.178,0,0,0,3.122,1.3,3.5,3.5,0,0,1,2.349,3.31v2.343a3.163,3.163,0,0,0,3.162,3.163h7.537a3.163,3.163,0,0,0,3.162-3.163v-2.343a3.5,3.5,0,0,1,2.347-3.31,28,28,0,0,0,3.124-1.3,3.5,3.5,0,0,1,4.007.677l1.662,1.662a3.16,3.16,0,0,0,4.471,0l5.332-5.332a3.16,3.16,0,0,0,0-4.471l-1.658-1.662a3.5,3.5,0,0,1-.678-4.009,28.223,28.223,0,0,0,1.3-3.122,3.5,3.5,0,0,1,3.311-2.349h2.343a3.161,3.161,0,0,0,3.155-3.16ZM400.734,316.5a17.164,17.164,0,1,1,15.714-15.719A17.164,17.164,0,0,1,400.734,316.5Z" transform="translate(-353.144 -253.205)" fill="#6e64c3"/>
            <path id="Path_66" data-name="Path 66" d="M447.81,306.559v-9.768a4.1,4.1,0,0,0-4.1-4.1h-3.036a4.533,4.533,0,0,1-4.293-3.047A36.691,36.691,0,0,0,434.7,285.6a4.538,4.538,0,0,1,.879-5.193l2.147-2.147a4.1,4.1,0,0,0,0-5.794l-6.906-6.908a4.1,4.1,0,0,0-5.8,0l-2.147,2.147a4.538,4.538,0,0,1-5.193.879,36.7,36.7,0,0,0-4.047-1.678,4.534,4.534,0,0,1-3.047-4.293V259.58a4.1,4.1,0,0,0-4.1-4.1h-9.761a4.1,4.1,0,0,0-4.1,4.1v3.037a4.533,4.533,0,0,1-3.047,4.293,36.682,36.682,0,0,0-4.045,1.678,4.54,4.54,0,0,1-5.193-.879l-2.147-2.147a4.1,4.1,0,0,0-5.8,0L365.5,272.47a4.1,4.1,0,0,0,0,5.794l2.147,2.147a4.54,4.54,0,0,1,.877,5.193,36.691,36.691,0,0,0-1.676,4.045,4.536,4.536,0,0,1-4.293,3.047h-3.036a4.1,4.1,0,0,0-4.1,4.1v9.769a4.1,4.1,0,0,0,4.1,4.1h3.036a4.537,4.537,0,0,1,4.293,3.042,36.51,36.51,0,0,0,1.676,4.047,4.54,4.54,0,0,1-.877,5.193L365.5,325.09a4.1,4.1,0,0,0,0,5.8l6.908,6.906a4.1,4.1,0,0,0,5.8,0l2.147-2.147a4.538,4.538,0,0,1,5.193-.877,36.677,36.677,0,0,0,4.045,1.676,4.534,4.534,0,0,1,3.047,4.293v3.037a4.1,4.1,0,0,0,4.1,4.1H406.5a4.1,4.1,0,0,0,4.1-4.1v-3.041a4.535,4.535,0,0,1,3.047-4.293,36.679,36.679,0,0,0,4.047-1.676,4.536,4.536,0,0,1,5.193.877l2.147,2.147a4.1,4.1,0,0,0,5.8,0l6.906-6.906a4.1,4.1,0,0,0,0-5.8l-2.147-2.147a4.538,4.538,0,0,1-.879-5.193,36.506,36.506,0,0,0,1.679-4.047,4.534,4.534,0,0,1,4.293-3.042h3.037a4.1,4.1,0,0,0,4.092-4.1Zm-44.39,17.285a22.243,22.243,0,1,1,20.366-20.365,22.243,22.243,0,0,1-20.366,20.365Z" transform="translate(-355.418 -255.482)" fill="#827ddc"/>
            <circle id="Ellipse_2" data-name="Ellipse 2" cx="29.655" cy="29.655" r="29.655" transform="translate(4.334 48.688) rotate(-48.405)" fill="none" stroke="#41378c" stroke-miterlimit="10" stroke-width="2.961"/>
            <path id="Path_67" data-name="Path 67" d="M368.4,298.107a29.654,29.654,0,0,1,29.657-29.655" transform="translate(-351.855 -251.914)" fill="none" stroke="#5046af" stroke-linecap="round" stroke-miterlimit="10" stroke-width="2.961"/>
          </g>
          <path id="Path_68" data-name="Path 68" d="M394.535,271.337a2.032,2.032,0,0,0,.312-2.77l-.776-1.039a6.627,6.627,0,0,1-1.53-4.085c.026-1.023-.64-3.9-1.7-3.722-.914.154.057,3.7-.867,3.608-.427-.039-1.952-2.558-3.08-4.063-.613-.817-1.764-1.221-1.964-.488-.125.458-.589.538-1.167.943-.543.382-.251,2.962-.24,3.637.012.845-.307,1.1,1.011,2.6a45.5,45.5,0,0,0,5.368,3.984l1.928,1.329a2.033,2.033,0,0,0,2.7.069Z" transform="translate(-347.717 -230.348)" fill="#fab9af"/>
          <path id="Path_69" data-name="Path 69" d="M392.318,267.352s18.015,17.294,22.239,18.74,16.312-23.612,18.478-26.2c3.584-4.281,11.322.132,9.986,8.059-1.685,10-25.533,29.261-28.464,29.537s-25.312-26.382-25.312-26.382C389.474,269.886,390.53,268.631,392.318,267.352Z" transform="translate(-346.12 -230.394)" fill="#b0b0ff"/>
        </g>
        <path id="Path_70" data-name="Path 70" d="M309.057,179.988l.9,2.818a.913.913,0,0,0,.607.6l2.831.857a.915.915,0,0,1,.269,1.62l-2.4,1.726a.917.917,0,0,0-.382.762l.061,2.957a.915.915,0,0,1-1.454.758l-2.384-1.751a.916.916,0,0,0-.844-.126l-2.793.969a.916.916,0,0,1-1.17-1.152l.929-2.809a.912.912,0,0,0-.138-.84L301.3,184.02a.917.917,0,0,1,.735-1.47l2.957.014a.912.912,0,0,0,.758-.393l1.688-2.428a.917.917,0,0,1,1.62.244Z" transform="translate(-143.191 -127.258)" fill="#fff"/>
        <g id="Path_71" data-name="Path 71" transform="translate(153.461 47.952)">
          <path id="Path_1-2" data-name="Path 1" d="M318.857,188.377a10.683,10.683,0,1,1-8.973-12.155,10.683,10.683,0,0,1,8.973,12.155Z" transform="translate(-297.609 -176.1)" fill="none"/>
          <path id="Path_2-2" data-name="Path 2" d="M308.307,196.965a10.179,10.179,0,0,0,1.5-20.244,10.324,10.324,0,0,0-1.529-.115,10.179,10.179,0,0,0-1.5,20.244,10.309,10.309,0,0,0,1.529.115m0,.505a10.791,10.791,0,0,1-1.6-.12,10.673,10.673,0,1,1,1.6.12Z" transform="translate(-297.609 -176.1)" fill="#fff"/>
        </g>
      </g>
      <g id="Group_19" data-name="Group 19" transform="translate(61.004 123.36)">
        <g id="Group_13" data-name="Group 13" transform="translate(448.955 50.21)">
          <g id="Group_10" data-name="Group 10">
            <path id="Path_26-2" data-name="Path 26" d="M473.207,167.942a29.752,29.752,0,1,1-36.3-21.283A29.75,29.75,0,0,1,473.207,167.942Z" transform="translate(-393.013 -145.689)" fill="#ffa50a"/>
            <path id="Path_27-2" data-name="Path 27" d="M469.936,171.322A29.624,29.624,0,0,0,472,161.713a135.8,135.8,0,0,1-26.853,9.756,135.923,135.923,0,0,1-28.2,4.6,29.588,29.588,0,0,0,6.5,7.376,180.751,180.751,0,0,0,46.492-12.125Z" transform="translate(-390.869 -130.69)" fill="#ff8026"/>
            <path id="Path_28-2" data-name="Path 28" d="M477.675,151.436a29.368,29.368,0,0,1,2.418,3.332c7.715-.271,12.844.815,13.5,3.33,1.293,4.958-15.243,13.562-36.934,19.219s-40.324,6.224-41.617,1.266c-.656-2.513,3.285-5.965,10.145-9.494a30.233,30.233,0,0,1,.484-4.093c-14.468,6.426-23.422,13.649-22.055,18.886,2.052,7.884,26.675,8.286,54.991.9s49.6-19.759,47.547-27.641C504.789,151.9,493.44,149.974,477.675,151.436Z" transform="translate(-403.478 -140.753)" fill="url(#linear-gradient-2)"/>
            <path id="Path_29-2" data-name="Path 29" d="M441.588,150.071c2.983,2.337,4.085,5.913,2.459,7.994s-5.367,1.87-8.35-.465-4.087-5.913-2.459-7.992S438.6,147.736,441.588,150.071Z" transform="translate(-376.326 -143.362)" fill="#ff8026"/>
            <path id="Path_30-2" data-name="Path 30" d="M444.734,154.474c.906,1.744.654,3.671-.56,4.3s-2.935-.273-3.839-2.017-.654-3.671.56-4.3S443.832,152.73,444.734,154.474Z" transform="translate(-369.488 -139.541)" fill="#ff8026"/>
            <path id="Path_31-2" data-name="Path 31" d="M443.674,158.33c1.229,2.37.891,4.987-.763,5.845s-3.988-.374-5.22-2.745-.887-4.989.763-5.841S442.447,155.957,443.674,158.33Z" transform="translate(-372.143 -136.679)" fill="#ff8026"/>
          </g>
        </g>
        <g id="Group_18" data-name="Group 18" transform="translate(-296.466 8.974)">
          <g id="Group_13-2" data-name="Group 13" transform="translate(403.478 145.689)">
            <g id="Group_10-2" data-name="Group 10">
              <path id="Path_26-3" data-name="Path 26" d="M452.642,160.126a19.3,19.3,0,1,1-23.548-13.807A19.3,19.3,0,0,1,452.642,160.126Z" transform="translate(-400.616 -145.689)" fill="#ffa50a"/>
              <path id="Path_27-3" data-name="Path 27" d="M451.325,167.947a19.219,19.219,0,0,0,1.34-6.234,99.418,99.418,0,0,1-35.716,9.315,19.2,19.2,0,0,0,4.214,4.785,117.262,117.262,0,0,0,30.162-7.866Z" transform="translate(-400.03 -141.587)" fill="#ff8026"/>
              <path id="Path_28-3" data-name="Path 28" d="M451.613,151.27a19.053,19.053,0,0,1,1.569,2.162c5.005-.176,8.332.529,8.758,2.16.839,3.217-9.889,8.8-23.961,12.468s-26.16,4.038-27,.821c-.426-1.63,2.131-3.87,6.581-6.159a19.61,19.61,0,0,1,.314-2.655c-9.386,4.169-15.2,8.855-14.308,12.252,1.331,5.114,17.305,5.376,35.676.585s32.18-12.819,30.846-17.932C469.2,151.572,461.841,150.321,451.613,151.27Z" transform="translate(-403.478 -144.339)" fill="url(#linear-gradient-2)"/>
              <path id="Path_29-3" data-name="Path 29" d="M438.391,149.4c1.936,1.516,2.65,3.836,1.6,5.186s-3.482,1.213-5.417-.3-2.651-3.836-1.6-5.185S436.454,147.89,438.391,149.4Z" transform="translate(-396.052 -145.052)" fill="#ff8026"/>
              <path id="Path_30-3" data-name="Path 30" d="M443,153.7c.588,1.132.425,2.381-.363,2.79s-1.9-.177-2.491-1.309-.425-2.381.363-2.788S442.412,152.564,443,153.7Z" transform="translate(-394.182 -144.007)" fill="#ff8026"/>
              <path id="Path_31-3" data-name="Path 31" d="M441.314,157.271c.8,1.537.578,3.235-.495,3.792s-2.587-.242-3.386-1.781-.575-3.237.495-3.789S440.517,155.731,441.314,157.271Z" transform="translate(-394.908 -143.225)" fill="#ff8026"/>
            </g>
          </g>
        </g>
      </g>
    </g>
  </g>
</svg>
